<svg width="18" height="24" viewBox="0 0 18 24" fill="none" xmlns="http://www.w3.org/2000/svg">
<path d="M17.8268 16.1538C17.8268 6.75 8.30754 0 8.30754 0C6.57677 9.46154 0.115234 8.76923 0.115234 16.2692C0.115234 20.6538 4.48062 23.2308 6.69215 23.8846C6.69215 23.8846 4.55754 21.3462 4.55754 18.9231C4.55754 16.7308 5.94215 15.4615 5.94215 15.4615C5.94215 15.4615 6.74985 16.2692 7.78831 16.2692C9.28831 16.2692 10.2691 13.3269 10.096 10.9038C10.096 10.9038 13.9614 14.4231 13.9614 18.1154C13.9614 21.1154 11.1922 24 11.1922 24C13.3268 23.4808 17.8268 21.1731 17.8268 16.1538Z" fill="#157EF4"/>
</svg>
