<svg width="107" height="28" viewBox="0 0 107 28" fill="none" xmlns="http://www.w3.org/2000/svg">
<path fill-rule="evenodd" clip-rule="evenodd" d="M103.692 4.16388C105.897 6.92696 107 11.4984 107 15.673C107 19.8476 103.692 23.9017 103.692 23.9017C103.692 23.9017 100.436 27.9995 95.282 27.9995C90.1276 27.9995 85.7594 26.6345 83.5237 23.9017C81.3188 21.1689 80.2163 17.8527 80.2163 14.0163C80.2163 10.2129 81.3188 6.92696 83.5237 4.16113C85.7286 1.3953 89.1003 0 93.6081 0C98.1158 0 101.488 1.39805 103.692 4.16388ZM7.83192 21.2405C7.35064 20.7231 7.02606 19.8809 6.89735 18.6535H0C0 21.3368 0.968147 23.5357 2.89885 25.286C4.86592 27.0005 7.89628 27.8729 11.9899 27.8729C16.0192 27.8729 18.9852 27.0638 20.9187 25.4153C22.8522 23.7641 23.8203 21.6643 23.8203 19.0773C23.8203 17.1041 23.1768 15.4886 21.8225 14.1621C20.471 12.8687 18.4396 11.8999 15.731 11.2532C11.6374 10.3478 9.28414 9.70104 8.607 9.34602C7.92985 8.98825 7.60807 8.40757 7.60807 7.63148C7.60807 7.01777 7.89628 6.47011 8.54264 6.01602C9.189 5.56193 10.2523 5.33626 11.7353 5.33626C13.5401 5.33626 14.7992 5.82062 15.5715 6.72605C15.9576 7.24344 16.2151 7.95348 16.313 8.82588H23.1124C22.7906 5.62523 21.6294 3.36303 19.5672 2.06955C17.5022 0.776082 14.8608 0.129347 11.6038 0.129347C8.1537 0.129347 5.51228 0.971479 3.60957 2.71629C1.70965 4.43083 0.775077 6.49763 0.775077 8.9222C0.775077 10.9587 1.35429 12.5109 2.57986 13.609C3.77186 14.7098 5.86764 15.6152 8.83364 16.3583C12.9273 17.3298 15.3141 18.0398 15.9576 18.4278C16.6012 18.8159 16.923 19.3966 16.923 20.1727C16.923 20.9818 16.5368 21.5955 15.731 21.9835C14.9559 22.4046 13.8926 22.5972 12.5383 22.5972C10.2495 22.5972 8.67135 22.1459 7.83192 21.2405ZM77.5861 3.28597C78.3304 4.1969 78.8172 5.33626 79.0775 6.66826H79.0047C79.167 7.54617 79.2622 8.8479 79.2957 10.5707L79.2622 27.0803H72.1242V10.3313C72.1242 9.32401 71.9619 8.51214 71.6373 7.85991C71.0189 6.65725 69.8829 6.04079 68.2544 6.04079C66.3684 6.04079 65.0337 6.85265 64.3174 8.41307C63.9593 9.25796 63.7634 10.268 63.7634 11.4376V27.0803H57.0339V11.4376C57.0339 9.87717 56.8717 8.73781 56.5499 8.02228C55.9679 6.75357 54.8374 6.10409 53.1586 6.10409C51.1915 6.10409 49.8988 6.75357 49.2216 8.02228C48.869 8.73781 48.6732 9.81112 48.6732 11.2422V27.0803H41.7395V23.4091C41.6723 23.5384 41.5128 23.7338 41.3169 24.0586C41.0567 24.4796 40.7657 24.8374 40.4076 25.1291C39.3359 26.1034 38.295 26.7529 37.2877 27.1106C36.3111 27.4684 35.1107 27.6308 33.7788 27.6308C29.9118 27.6308 27.2788 26.2355 25.9469 23.4421C25.1998 21.8844 24.8109 19.6112 24.8109 16.6225V0.803604L31.7446 1.84389V16.6362C31.7446 18.1334 31.9041 19.27 32.2594 20.0185C32.8694 21.3533 34.0922 22.0358 35.8942 22.0358C38.2082 22.0358 39.7864 21.0616 40.6538 19.1737C41.1043 18.1664 41.3281 16.8014 41.3281 15.1089V1.89893L41.5604 1.8659L48.2982 0.864149L48.4661 4.5877C49.2776 3.28597 50.0582 2.31174 50.8025 1.75857C52.1344 0.751315 53.8525 0.231174 55.9595 0.231174C57.9685 0.231174 59.5914 0.688018 60.8226 1.56317C61.8271 2.37503 62.5742 3.41807 63.0919 4.71705C64.0012 3.15662 65.1037 2.01727 66.4328 1.30173C67.8263 0.58619 69.4156 0.228422 71.1336 0.228422C72.3032 0.233925 73.4589 0.467852 74.5389 0.910934C75.6414 1.36778 76.6795 2.14661 77.5861 3.28597ZM98.211 20.0984C99.2799 18.6673 99.8339 16.65 99.8339 14.0163C99.8339 11.3826 99.2827 9.36529 98.211 7.93421C97.1393 6.50314 95.5835 5.7876 93.6053 5.7876C91.5934 5.7876 90.0713 6.50314 88.9688 7.93421C87.8999 9.36529 87.3459 11.3826 87.3459 14.0163C87.3459 16.65 87.8971 18.6673 88.9688 20.0984C90.0377 21.5294 91.5962 22.245 93.6053 22.245C95.6143 22.245 97.1421 21.5294 98.211 20.0984Z" fill="white"/>
</svg>
